<?xml version="1.0" encoding="utf-8"?>
<!-- Generator: Adobe Illustrator 18.1.1, SVG Export Plug-In . SVG Version: 6.00 Build 0)  -->
<!DOCTYPE svg PUBLIC "-//W3C//DTD SVG 1.1//EN" "http://www.w3.org/Graphics/SVG/1.1/DTD/svg11.dtd">
<svg version="1.1"
	 id="svg4460" xmlns:dc="http://purl.org/dc/elements/1.1/" xmlns:inkscape="http://www.inkscape.org/namespaces/inkscape" xmlns:svg="http://www.w3.org/2000/svg" xmlns:rdf="http://www.w3.org/1999/02/22-rdf-syntax-ns#" xmlns:cc="http://creativecommons.org/ns#"
	 xmlns="http://www.w3.org/2000/svg" xmlns:xlink="http://www.w3.org/1999/xlink" x="0px" y="0px" viewBox="-383 295 24 24"
	 enable-background="new -383 295 24 24" xml:space="preserve">
<g id="layer1" transform="translate(0,-1028.3622)">
	<g id="oil-well-24" transform="translate(-476,-237.99998)">
		<g id="g7345" transform="translate(2,0)">
			
				<path id="path5656" inkscape:connector-curvature="0" opacity="0.3" fill="#FFFFFF" stroke="#FFFFFF" stroke-width="2" stroke-linecap="round" stroke-linejoin="round" enable-background="new    " d="
				M101.5,1564.4c-0.5,0-0.8,0.5-1,1l-5.3,16c0,0.1-0.2,0.4-0.2,0.5c0,0.5,0.5,0.5,1,0.5s1,0,1.2-0.5l0.8-2.2l5.5-2.8l5.5,2.8
				l0.8,2.2c0.2,0.5,0.7,0.5,1.2,0.5s1,0,1-0.5c0-0.1-0.1-0.4-0.2-0.5l-5.3-16c-0.2-0.5-0.5-1-1-1H101.5z M106,1571.4l0.7,1.9
				l-3.2,1.6l-3.2-1.6l0.7-1.9H106z M99.7,1575l1.8,0.9l-2.6,1.3L99.7,1575z M107.3,1575l0.8,2.2l-2.6-1.3L107.3,1575z"/>
			<path id="path6960-9" inkscape:connector-curvature="0" fill="#00CDEF" d="M101.5,1564.4c-0.5,0-0.8,0.5-1,1l-5.3,16
				c0,0.1-0.2,0.4-0.2,0.5c0,0.5,0.5,0.5,1,0.5s1,0,1.2-0.5l0.8-2.2l5.5-2.8l5.5,2.8l0.8,2.2c0.2,0.5,0.7,0.5,1.2,0.5s1,0,1-0.5
				c0-0.1-0.1-0.4-0.2-0.5l-5.3-16c-0.2-0.5-0.5-1-1-1H101.5z M106,1571.4l0.7,1.9l-3.2,1.6l-3.2-1.6l0.7-1.9H106z M99.7,1575
				l1.8,0.9l-2.6,1.3L99.7,1575z M107.3,1575l0.8,2.2l-2.6-1.3L107.3,1575z"/>
		</g>
	</g>
</g>
<rect id="canvas" x="-383" y="295" display="none" fill="none" width="24" height="24"/>
</svg>
