<?xml version="1.0" encoding="utf-8"?>
<!-- Generator: Adobe Illustrator 18.1.1, SVG Export Plug-In . SVG Version: 6.00 Build 0)  -->
<!DOCTYPE svg PUBLIC "-//W3C//DTD SVG 1.1//EN" "http://www.w3.org/Graphics/SVG/1.1/DTD/svg11.dtd">
<svg version="1.1" id="Layer_1" xmlns="http://www.w3.org/2000/svg" xmlns:xlink="http://www.w3.org/1999/xlink" x="0px" y="0px"
	 viewBox="0 0 512 512" enable-background="new 0 0 512 512" xml:space="preserve">
<g>
	<path fill="#FFFFFF" d="M60.5,234.3c6.4,0,11.1,2,15.5,6c0.6,0.5,0.6,1.3,0.1,1.8l-5,5.2c-0.4,0.4-1.2,0.4-1.6,0
		c-2.4-2.1-5.5-3.3-8.6-3.3c-7.2,0-12.5,6-12.5,13.2c0,7.1,5.4,13,12.6,13c3,0,6.3-1.1,8.6-3.1c0.4-0.4,1.3-0.4,1.7,0.1l5,5.3
		c0.4,0.4,0.4,1.3-0.1,1.7c-4.4,4.2-9.9,6.2-15.6,6.2c-12.8,0-23.1-10.2-23.1-23C37.3,244.6,47.7,234.3,60.5,234.3z"/>
	<path fill="#FFFFFF" d="M104.5,234.3c12.8,0,23,10.3,23,23.1c0,12.8-10.2,23-23,23c-12.8,0-23-10.2-23-23
		C81.5,244.6,91.7,234.3,104.5,234.3z M104.5,270.2c7,0,12.8-5.8,12.8-12.7c0-7-5.8-12.9-12.8-12.9c-7,0-12.7,5.8-12.7,12.9
		C91.7,264.4,97.5,270.2,104.5,270.2z"/>
	<path fill="#FFFFFF" d="M141,235.3c0.1-0.6,0.6-1,1.2-1h1c0.3,0,0.9,0.3,1.1,0.6l14.8,27.6h0.1L174,235c0.2-0.4,0.8-0.6,1.1-0.6h1
		c0.5,0,1.1,0.4,1.2,1l7.2,43c0.1,0.8-0.4,1.4-1.2,1.4h-7.6c-0.6,0-1.2-0.5-1.2-1l-2.9-19.8h-0.1l-10.8,20.7
		c-0.2,0.4-0.8,0.7-1.1,0.7h-1.2c-0.4,0-0.9-0.3-1.1-0.7L146.7,259h-0.1l-2.8,19.8c-0.1,0.5-0.6,1-1.2,1h-7.6
		c-0.8,0-1.3-0.6-1.2-1.4L141,235.3z"/>
	<path fill="#FFFFFF" d="M198.4,235.3c0.1-0.6,0.6-1,1.2-1h1c0.3,0,0.9,0.3,1.1,0.6l14.8,27.6h0.1l14.8-27.6
		c0.2-0.4,0.8-0.6,1.1-0.6h1c0.5,0,1.1,0.4,1.2,1l7.2,43c0.1,0.8-0.4,1.4-1.2,1.4h-7.6c-0.6,0-1.2-0.5-1.2-1l-2.9-19.8H229
		l-10.8,20.7c-0.2,0.4-0.8,0.7-1.1,0.7H216c-0.4,0-0.9-0.3-1.1-0.7L204.1,259H204l-2.8,19.8c-0.1,0.5-0.6,1-1.2,1h-7.6
		c-0.8,0-1.3-0.6-1.2-1.4L198.4,235.3z"/>
	<path fill="#FFFFFF" d="M250.8,236.2c0-0.6,0.6-1.2,1.2-1.2h7.9c0.7,0,1.2,0.6,1.2,1.2v25.9c0,4.5,3.3,8.1,7.9,8.1
		c4.6,0,8-3.6,8-8.1v-25.9c0-0.6,0.5-1.2,1.2-1.2h7.9c0.6,0,1.2,0.6,1.2,1.2v26.4c0,9.7-8.2,17.8-18.3,17.8
		c-10,0-18.2-8.1-18.2-17.8V236.2z"/>
	<path fill="#FFFFFF" d="M298.8,235.5c0-0.6,0.6-1.2,1.2-1.2h1.6l25.5,24.6h0.1v-22.7c0-0.6,0.5-1.2,1.2-1.2h7.7
		c0.6,0,1.2,0.6,1.2,1.2v43.1c0,0.6-0.6,1.2-1.2,1.2h-1c-0.2,0-0.7-0.2-0.8-0.3L309,254.7H309v23.9c0,0.6-0.5,1.2-1.2,1.2h-7.6
		c-0.6,0-1.2-0.6-1.2-1.2L298.8,235.5z"/>
	<path fill="#FFFFFF" d="M349.7,236.2c0-0.6,0.6-1.2,1.2-1.2h7.7c0.6,0,1.2,0.6,1.2,1.2v42.4c0,0.6-0.6,1.2-1.2,1.2h-7.7
		c-0.6,0-1.2-0.6-1.2-1.2V236.2z"/>
	<path fill="#FFFFFF" d="M377.8,244.4h-9.2c-0.7,0-1.2-0.6-1.2-1.2v-7c0-0.6,0.5-1.2,1.2-1.2h28.4c0.7,0,1.2,0.6,1.2,1.2v7
		c0,0.6-0.5,1.2-1.2,1.2h-9.2v34.2c0,0.6-0.6,1.2-1.2,1.2H379c-0.6,0-1.2-0.6-1.2-1.2V244.4z"/>
	<path fill="#FFFFFF" d="M406,236.2c0-0.6,0.6-1.2,1.2-1.2h7.7c0.6,0,1.2,0.6,1.2,1.2v42.4c0,0.6-0.6,1.2-1.2,1.2h-7.7
		c-0.6,0-1.2-0.6-1.2-1.2V236.2z"/>
	<path fill="#FFFFFF" d="M428.4,236.2c0-0.6,0.5-1.2,1.2-1.2h26.5c0.7,0,1.2,0.6,1.2,1.2v7c0,0.6-0.5,1.2-1.2,1.2h-17.7v7.9H453
		c0.6,0,1.2,0.6,1.2,1.2v7c0,0.7-0.6,1.2-1.2,1.2h-14.6v8.6h17.7c0.7,0,1.2,0.6,1.2,1.2v7c0,0.6-0.5,1.2-1.2,1.2h-26.5
		c-0.7,0-1.2-0.6-1.2-1.2V236.2z"/>
	<path fill="#FFFFFF" d="M464.6,273.7l3-5.3c0.5-0.8,1.7-0.7,2.2-0.4c0.3,0.1,4.9,3.5,9.1,3.5c2.6,0,4.4-1.6,4.4-3.8
		c0-2.7-2.2-4.7-6.6-6.5c-5.5-2.2-12.4-6.5-12.4-14.1c0-6.3,4.9-12.7,14.8-12.7c6.7,0,11.8,3.4,13.7,4.8c0.8,0.4,0.6,1.6,0.4,2
		l-3.3,4.9c-0.4,0.7-1.6,1.3-2.2,0.8c-0.6-0.3-5.2-3.8-9.2-3.8c-2.3,0-4,1.5-4,3.3c0,2.4,1.9,4.2,7,6.2c5,2,12.9,5.9,12.9,14.6
		c0,6.6-5.7,13.2-15.1,13.2c-8.3,0-12.9-3.5-14.4-4.9C464.3,274.8,464.1,274.6,464.6,273.7z"/>
</g>
<g>
	<path fill="#00CDEF" d="M227.1,99h73.6l9.3,25.8h31.6l-17.8-53.1c-3.1-10-10-20-20-20h-80c-10,0-16.9,10-20,20l-17.8,53.1h31.6
		L227.1,99z"/>
	<path fill="#00CDEF" d="M430.7,430.9l-46-137.6H280.5l-16.6,8.3l-16.6-8.3H143.2l-46,137.6c-0.8,2.3-3.1,8.3-3.1,10.6
		c0,10,10,10,20,10s19.4,0,23.1-10l16.9-45l109.9-55l109.9,55l16.9,45c3.7,10,13.1,10,23.1,10c10,0,20,0,20-10
		C433.8,439.2,431.5,433.1,430.7,430.9z M171.5,347.8l16.2-44.4l36.2,18.1L171.5,347.8z M303.9,321.6l36.2-18.1l16.2,44.4
		L303.9,321.6z"/>
</g>
<text transform="matrix(1 0 0 1 134.7626 223.3353)" fill="#FFFFFF" font-family="'BrandonGrotesque-Black'" font-size="103.1631">WELL</text>
</svg>
